<svg xmlns="http://www.w3.org/2000/svg" viewBox="0 0 223.892 25">
  <defs>
    <style>
      .cls-1 {
        fill: #fff;
      }
    </style>
  </defs>
  <path id="Path_830" data-name="Path 830" class="cls-1" d="M12.653,10.59a1.67,1.67,0,0,1,0-.709,3.421,3.421,0,0,0,.1-.709.72.72,0,0,0-.1-.3.372.372,0,0,1-.1-.3A1.956,1.956,0,0,1,12.7,7.5a1.624,1.624,0,0,0,.1-.963,1.252,1.252,0,0,0-.2-.456.575.575,0,0,1-.152-.405,3.794,3.794,0,0,1-.1-1.064,9.1,9.1,0,0,1,.1-1.115,7.59,7.59,0,0,0,.1-1.115,3.794,3.794,0,0,0-.1-1.064A2.511,2.511,0,0,0,11.133.912,6.767,6.767,0,0,0,9.714.963c-1.52.051-3.142.051-4.814.1H.189a5.211,5.211,0,0,0,0,1.773A17.615,17.615,0,0,1,.442,4.662,14.482,14.482,0,0,1,.29,7.6a14.59,14.59,0,0,0-.2,2.939c.051,2.28.1,4.611.152,6.891q.076,3.5.456,6.992c.76,0,1.621.051,2.584.1a11.812,11.812,0,0,0,2.685-.1.674.674,0,0,0-.152-.355.547.547,0,0,1-.152-.355.989.989,0,0,1,.051-.355.551.551,0,0,0,.051-.253,4.582,4.582,0,0,0,.051-1.419c-.051-.405-.1-.811-.152-1.165,0-.051.051-.1.152-.051a.383.383,0,0,0,.2.051.433.433,0,0,0-.152-.3l-.3-.152a3.231,3.231,0,0,0-.355-.1.506.506,0,0,1-.253-.2,26.1,26.1,0,0,0,.1-3.446C5,15.15,4.951,14.035,4.9,12.87s-.152-2.331-.2-3.547-.051-2.432,0-3.648a5.836,5.836,0,0,0,1.013-.051,4.435,4.435,0,0,1,.811-.1,3.81,3.81,0,0,1,.76,0,2.523,2.523,0,0,1,.963.2A34.571,34.571,0,0,0,8.3,9.678c.051,1.368.152,2.787.2,4.256a24.644,24.644,0,0,1,0,2.736,12.648,12.648,0,0,0,.1,2.483c-.1,0-.152.1-.1.3a.742.742,0,0,1-.1.557,8.985,8.985,0,0,1-1.115-.051,4.208,4.208,0,0,0-1.368.152c0,.152.051.2.152.2s.152.1.2.3a.551.551,0,0,1-.051.253,1.125,1.125,0,0,0-.051.456,3.526,3.526,0,0,0,.1.811.622.622,0,0,1-.1.608,1.012,1.012,0,0,1,.1.456.367.367,0,0,1-.1.405c.1,0,.152.1.2.2s.051.2.1.3c0,.1.051.2.051.3s0,.152.051.152a2.87,2.87,0,0,0,1.317.051c.456-.051.861-.1,1.317-.152a7.235,7.235,0,0,1,1.469.152,8.017,8.017,0,0,0,1.621.152.387.387,0,0,1,.253.1c.051.051.152.1.355.051a5.847,5.847,0,0,0-.051-1.317,3.843,3.843,0,0,1-.051-1.317,2.155,2.155,0,0,1,.1-.557,1.091,1.091,0,0,0,.1-.557.551.551,0,0,0-.051-.253.551.551,0,0,1-.051-.253,4.934,4.934,0,0,1-.1-1.216c0-.355.051-.811.1-1.317.051-.76.1-1.52.1-2.179V13.985a9.366,9.366,0,0,1,.051-1.165,8.589,8.589,0,0,0,.051-1.115,4.225,4.225,0,0,0-.2-.608A.473.473,0,0,1,12.653,10.59ZM2.165,5.118a.279.279,0,0,1,.152.253.643.643,0,0,1-.3-.051c-.1,0-.152-.1-.152-.2A.323.323,0,0,1,2.165,5.118Zm-.3,1.571a.239.239,0,0,1,.253.253H1.861ZM1.506,17.126q-.152.076-.152,0c0-.1.1-.152.253-.152C1.658,17.076,1.607,17.126,1.506,17.126Zm.507-4.408c-.051,0-.1.051-.152.1-.051-.051-.051-.1,0-.2s.152-.1.253-.051C2.063,12.667,2.063,12.718,2.013,12.718Zm.2-5.27c-.152,0-.2-.051-.1-.1A.186.186,0,0,0,2.266,7.3c.051,0,.051,0,.051.051C2.367,7.448,2.317,7.448,2.215,7.448Zm.709-5.067c.1.152.051.253-.1.405-.152.1-.253.2-.405.2ZM2.671,4.307a.226.226,0,0,1,.253,0c.051.1.051.152,0,.2-.1,0-.2-.051-.2-.1C2.671,4.408,2.671,4.358,2.671,4.307Zm.456,7.4a.23.23,0,0,1-.253,0,.125.125,0,0,0-.051-.2c-.1-.051-.1-.152-.051-.253a.279.279,0,0,1,.253.152.234.234,0,0,0,.253.152Q3.279,11.629,3.127,11.7Zm6.03,9.931c-.051.051-.051.1-.051.253-.1-.051-.2-.051-.3-.1H8.5a.186.186,0,0,1,.051-.152.383.383,0,0,0-.051-.2.542.542,0,0,0,.405,0,.323.323,0,0,1,.3,0C9.208,21.535,9.208,21.585,9.157,21.636Zm.557-1.52a.186.186,0,0,1-.152-.051c0-.051-.051-.051-.152-.051a.239.239,0,0,1,.253-.253.3.3,0,0,0,.051.2Q9.79,19.964,9.714,20.116Zm.811,2.483c-.1,0-.1-.051-.1-.152h.253C10.626,22.6,10.626,22.6,10.525,22.6Zm6.587,1.773c.051-.051.1-.051.152-.1l-.152.1ZM27.9,19.052c0-1.368,0-2.635-.051-3.851-.051-1.165-.051-2.381-.051-3.648V6.283c0-1.723-.051-3.344-.152-4.814q-1.292.076-2.432.152a18.346,18.346,0,0,0-2.331.3c-.051,1.368-.1,2.837-.1,4.358s0,3.04.051,4.56.1,3.091.152,4.611c.1,1.52.152,2.99.253,4.408a7.137,7.137,0,0,0-1.013.051c-.355,0-.76.051-1.165.051a8.175,8.175,0,0,1-1.115,0,5.612,5.612,0,0,1-.963-.1c0-.76.051-1.571.1-2.331s.1-1.52.152-2.229c.051-.253.1-.456.152-.709a3.116,3.116,0,0,0,.051-.709,1.289,1.289,0,0,0-.253-.811,16.277,16.277,0,0,1-.1-2.736c0-.912.051-1.875.1-2.787.051-.963.1-1.875.152-2.837s.051-1.875.051-2.837L14.376,1.52c-.051,1.672-.1,3.243-.1,4.662,0,1.469,0,2.888-.051,4.358-.051,1.621,0,3.192.051,4.763a44.253,44.253,0,0,1,.051,4.459,4.462,4.462,0,0,1-.1.861.919.919,0,0,0,.1.659.9.9,0,0,0,.2.507,2.9,2.9,0,0,0,.355.405l.405.405a1.82,1.82,0,0,1,.355.507,2.145,2.145,0,0,1,.253.355c.1.152.152.3.253.456s.2.253.253.355a.438.438,0,0,0,.3.152.72.72,0,0,0,.3-.1.05.05,0,0,0,.051-.051h-.1a.05.05,0,0,1-.051-.051.186.186,0,0,0-.152-.051v-.152h-.051a.177.177,0,0,1-.051-.1v-.405h.1a2.2,2.2,0,0,0,.355.2.5.5,0,0,1,.152.405v-.152l.1.2c.051,0,.1.051.2.051a2.608,2.608,0,0,0,.912.051,6.807,6.807,0,0,1,.963-.051H23.6a3.182,3.182,0,0,1,.963.152c.355.1.608.152.76.051.152,0,.253-.1.355-.253l.3-.456c.1-.152.2-.355.3-.507a4.566,4.566,0,0,0,.253-.456,5.374,5.374,0,0,1,.76-.76,1.657,1.657,0,0,0,.557-.76,3.571,3.571,0,0,0,.051-1.064ZM15.085,17.38c-.051,0-.1,0-.1-.051s-.051-.051-.152-.051c.051-.1.1-.152.152-.1s.051.051.051.1v.1Zm-.152-2.888c0,.1,0,.1-.1.1a.3.3,0,0,1,.051-.2c.051-.051,0-.1-.051-.2.152,0,.253.051.253.152Q14.933,14.416,14.933,14.492Zm.1-.355a.177.177,0,0,1-.1.051v-.253h.1C15.085,14.035,15.085,14.137,15.035,14.137ZM17.568,11.6c0-.051.051-.051.152-.051.051.1,0,.152-.1.152a.134.134,0,0,1-.152-.152A.157.157,0,0,0,17.568,11.6Zm.355,4.966c0,.051-.051.1-.152.1a.646.646,0,0,0-.2-.3q-.152-.076-.152-.456l.355.253a.186.186,0,0,0,.051.152c0,.051.1.051.253.051A.7.7,0,0,1,17.923,16.569ZM42.295.861c-.709.051-1.419.051-2.128.1-1.723.051-3.5.051-5.27.051S31.2.963,29.121.963V3.091c0,.709-.051,1.52-.1,2.331h3.648a13.291,13.291,0,0,1,1.368.051,20.221,20.221,0,0,1-.2,3.091,9.968,9.968,0,0,0-.051,2.736,7.866,7.866,0,0,0,.2,1.064,2.1,2.1,0,0,1,.051.963.939.939,0,0,1-.1.355.753.753,0,0,0-.1.456,2.678,2.678,0,0,0,.051.608c0,.2.051.405.051.608.1,1.875.152,3.6.152,5.067s.051,2.939.1,4.358a7.458,7.458,0,0,0,1.064,0,8.97,8.97,0,0,0,1.165-.051h1.216a8.589,8.589,0,0,1,1.165.051c0-1.824.051-3.5.152-5.118s.152-3.243.2-4.915c0-.659.051-1.368.051-2.179V10.134c0-.811.051-1.672.051-2.432a14.224,14.224,0,0,1,.152-2.179,14.137,14.137,0,0,1,2.533-.1c.861.051,1.723.051,2.533.1a7.42,7.42,0,0,1,0-1.064,10.591,10.591,0,0,1,.051-1.267V1.925a5.227,5.227,0,0,0-.1-1.013A15.1,15.1,0,0,0,42.295.861ZM34.34,22.143c0-.2.1-.253.355-.253ZM34.8,19.1c-.1,0-.152,0-.2-.051,0-.1.1-.152.355-.152C34.948,19,34.9,19.052,34.8,19.1Zm.709-14.694h.253c0,.1-.051.152-.152.253A.3.3,0,0,1,35.505,4.408Zm.355,6.283c-.051,0-.1,0-.1.051s-.051.051-.152.051a.239.239,0,0,1,.253-.253Zm.507-8.462c-.1,0-.1-.051-.1-.1s0-.051.051-.051.1.051.152.051A.109.109,0,0,1,36.367,2.229Zm.557,10.134a.263.263,0,0,1,.1-.2c.051,0,.1,0,.152.1C37.177,12.313,37.076,12.363,36.924,12.363Zm.861,1.317c-.1,0-.2-.051-.2-.1-.051-.051-.051-.152-.1-.253a.1.1,0,0,1,.152,0c.051.051.1.1.152.1Zm19.964,5.675a.751.751,0,0,0-.811.152c-1.419.1-2.736.152-3.851.253a12.643,12.643,0,0,1-3.395-.253,14.729,14.729,0,0,0,.3-3.04,16.157,16.157,0,0,1,.405-3.142,1.211,1.211,0,0,1-.253-.709,4.359,4.359,0,0,1,.051-.811c.051-.253.1-.557.152-.861s.1-.608.152-.861a22.321,22.321,0,0,0-.152-2.635c-.1-.861-.152-1.621-.253-2.229a1.07,1.07,0,0,0,.3-.811,4.1,4.1,0,0,0,0-1.115c-.051-.405-.051-.811-.1-1.216A4.4,4.4,0,0,1,50.351.912a.387.387,0,0,1,.1-.253c.051-.051.051-.1-.1-.1L45.436.811a2.386,2.386,0,0,0-.253,1.216,9.872,9.872,0,0,1-.1,1.267c-.051.861-.051,1.672-.051,2.483s.051,1.672.051,2.483c0,2.381.051,4.611.1,6.688s.051,4.1-.1,6.131a.154.154,0,0,0,.2,0,.1.1,0,0,1,.152,0,.7.7,0,0,1-.2.152c-.1,0-.152.051-.152.1a4.05,4.05,0,0,1,.659.659,3.6,3.6,0,0,1,.507.709,3.6,3.6,0,0,0,.507.709,3.489,3.489,0,0,0,.557.659,22.222,22.222,0,0,1,2.736-.152h3.04c1.013,0,2.027.051,2.99.051h2.685V19.356A2.281,2.281,0,0,1,57.749,19.356ZM46.551,1.621c-.051-.051,0-.051,0,0,.1-.1.152-.152.152-.1v.152A.186.186,0,0,1,46.551,1.621Zm2.179,4.56a.234.234,0,0,1,.253-.152c0,.2-.051.3-.152.355a.428.428,0,0,1-.355,0C48.629,6.384,48.679,6.283,48.73,6.182Zm-.507,2.331c.051,0,.051-.051,0-.2a.335.335,0,0,0,.3.051.643.643,0,0,1,.3.051v.2a.387.387,0,0,1-.1.253q-.3,0-.3-.152c-.051-.1-.152-.152-.3-.051C48.122,8.614,48.173,8.512,48.223,8.512Zm-.2,4.459v-.253h.253C48.223,12.87,48.173,12.971,48.021,12.971Zm.608.608c0-.1.1-.152.253-.152A.234.234,0,0,1,48.629,13.579Zm.557-2.635a.292.292,0,0,0-.405-.152,1.081,1.081,0,0,1-.608.152.637.637,0,0,1,.355-.3.382.382,0,0,0,.355-.2l-.355-.355c0-.051,0-.1.051-.1h.051c.1.1.253.2.405.355Q49.414,10.489,49.186,10.945Zm0-.963-.051-.051-.051-.051a.157.157,0,0,0-.051-.1.3.3,0,0,1,.2.051C49.338,9.881,49.338,9.931,49.186,9.982Zm.253-.557a2.2,2.2,0,0,0-.253-.051c.051-.2.152-.253.253-.2a1.27,1.27,0,0,1,.355.2l-.152.152c0,.1-.1.1-.2.1C49.49,9.526,49.49,9.475,49.439,9.425ZM49.49,15.1a.279.279,0,0,1,.1-.253c.051,0,.051.051.051.152a.457.457,0,0,0,.051.253C49.541,15.252,49.49,15.2,49.49,15.1ZM63.779.76a.222.222,0,0,0-.152-.051h.253C63.83.76,63.779.811,63.779.76Zm8.107,18.849h0a.217.217,0,0,0-.051-.355,8.66,8.66,0,0,0-.152-1.571c-.1-.557-.152-1.115-.253-1.621-.051-.253-.152-.507-.2-.76a1.987,1.987,0,0,0-.253-.659c.051,0,.1-.1.1-.253-.3-1.469-.608-2.939-.811-4.408A40.76,40.76,0,0,0,69.3,5.675l-.253-.811a.109.109,0,0,1-.1.1c-.051,0-.1.051-.2.152H69v.1a.551.551,0,0,1-.051.253c0,.1-.1.152-.253.152-.051,0-.1,0-.1-.051V5.523l-.253.152V5.523c0-.051.051-.1.1-.253v-.1h-.253V5.016c0-.1.051-.2.1-.2s.1-.051.152-.051V4.611l.152.152V4.712c0-.051.051-.051.1-.051a.134.134,0,0,1,.152.152v-.2c0-.051,0-.051.051-.051s.051,0,.051-.051c-.051-.253-.152-.507-.2-.76a3.4,3.4,0,0,0-.3-.76l-.355-1.773Q67.934.608,67.63.608a4.509,4.509,0,0,0-.963.152H64.286c.051.051.1.1.051.1s-.1.051-.152.152c-.051-.051-.1-.1-.051-.152,0-.051,0-.051-.051-.051a.955.955,0,0,1-.405.1c-.152.051-.2,0-.2-.1h-.709a8.781,8.781,0,0,1-.152,1.621,9.711,9.711,0,0,1-.456,1.621A7.19,7.19,0,0,0,61.9,5.168a4.805,4.805,0,0,1-.253,1.165.808.808,0,0,1-.2.608,1.112,1.112,0,0,0-.253.608l-.355,2.635c-.2,1.52-.405,3.04-.608,4.51-.152,1.469-.355,2.939-.608,4.358.051.051.152.1.2.051a.551.551,0,0,1,.253.051q-.3.152-.456,0l-.811,5.726a8.914,8.914,0,0,0,1.976.1c.608-.051,1.216-.1,1.824-.1.152-.709.253-1.419.355-2.128a6.726,6.726,0,0,1,.608-2.027c.709,0,1.469,0,2.229.051.811.051,1.52.051,2.128.051a13.392,13.392,0,0,1,.608,2.027,11.656,11.656,0,0,0,.709,2.128H72.6l-.608-5.27A.109.109,0,0,0,71.886,19.609ZM64.59,1.824l-.152-.152v.152H63.83l.1-.152a.177.177,0,0,0,.1-.051l.051-.051h.2l.1-.152v.152h.152v.253Zm1.419,14.289a8.635,8.635,0,0,1-1.267-.051,21.435,21.435,0,0,1,.557-3.142c.253-1.013.507-1.976.76-2.939a24.033,24.033,0,0,1,.76,2.888c.2,1.064.355,2.077.557,3.192A13.292,13.292,0,0,0,66.008,16.113ZM69.859,22.6h-.405c-.051,0-.1,0-.1-.051a.875.875,0,0,0-.152-.2v-.152l.253.152h.3a.732.732,0,0,1,.355.1l.152.355ZM89.772,7.2c.051,1.672,0,3.446-.1,5.27a3.911,3.911,0,0,1-.1.76c-.051.253-.1.456-.152.659a2.567,2.567,0,0,0,.1.659c.051.2.1.405.152.659.051.76.1,1.571.2,2.331a17.432,17.432,0,0,1,.152,2.331,4.545,4.545,0,0,1-.912.1H88.05a9.1,9.1,0,0,1-1.115-.1c-.355-.051-.659-.1-.963-.152.1-1.571.2-3.04.253-4.51s.1-2.888.152-4.307.051-2.837.1-4.307c0-1.469.051-2.99.051-4.56-.861,0-1.672-.051-2.483-.1a6.729,6.729,0,0,0-2.28.2V4.966a11.453,11.453,0,0,0,.051,1.317c0,.456.051.912.051,1.469.051,1.064.1,2.128.1,3.142s0,2.077.051,3.142c.051.963.051,1.925.1,2.939v2.888a12.53,12.53,0,0,0-1.925.253,5.816,5.816,0,0,1-1.875,0,4.579,4.579,0,0,1-.1-1.419c.051-.456.051-.912.1-1.469.152-1.824.2-3.648.253-5.472.051-1.875.051-3.851-.051-5.928a3.587,3.587,0,0,0,.2-1.723c-.051-.659-.051-1.317-.051-1.976a9.893,9.893,0,0,1-1.165-.1c-.405-.051-.861-.1-1.267-.152-.456-.051-.861-.1-1.267-.152a9.366,9.366,0,0,0-1.165-.051c-.051,0-.1,0-.1.051v7.2c0,.1.051.152.2.152.1,0,.1,0-.1.1.051.051.1.051.051.051s-.1.051-.152.152a11.84,11.84,0,0,1,0,2.685,20.33,20.33,0,0,0-.1,3.04,2.155,2.155,0,0,0,.1.557,1.091,1.091,0,0,1,.1.557c0,.608,0,1.216.051,1.925,0,.659,0,1.317-.051,1.875a3.912,3.912,0,0,1-.1.76,1.914,1.914,0,0,0,0,.76,1.684,1.684,0,0,0,.659.811,2.6,2.6,0,0,1,.76.709,4.3,4.3,0,0,1,.405.861,1.3,1.3,0,0,0,.507.659,10.147,10.147,0,0,1,1.216-.2h1.267c.456,0,.861.051,1.317.051h1.317a2.678,2.678,0,0,1,.608.051,1.9,1.9,0,0,0,.507.051c.1,0,.3-.051.659-.051s.76-.051,1.165-.051h1.165a2.3,2.3,0,0,1,.709.051h1.115c.659,0,1.469-.051,2.331-.051.912,0,1.773-.051,2.635-.051h1.976a1,1,0,0,0,.3-.709,3.911,3.911,0,0,0-.1-.76,3.911,3.911,0,0,1-.1-.76,1.217,1.217,0,0,1,.3-.76c.051-.557.1-1.064.1-1.52V13.934c-.1,0-.152.051-.152.1v.152l-.1.1-.152-.1c-.051,0-.1-.051-.1-.152s.051-.152.1-.253a.157.157,0,0,1,.051-.1.05.05,0,0,0,.051-.051h.253V7.752c0-1.976.051-4,.1-6.131l-4.763.405C89.772,3.8,89.772,5.523,89.772,7.2ZM76.5,9.171c-.051.1-.152.2-.2.3a.506.506,0,0,1-.253.2c0-.051,0-.1-.051-.1-.051-.051-.051-.1-.051-.253a1.108,1.108,0,0,1,.253-.152C76.294,9.07,76.4,9.121,76.5,9.171ZM76.092,6.79a.186.186,0,0,1,.051-.152h.152V6.79h-.051c-.051,0-.051.051-.051.1C76.142,6.891,76.092,6.891,76.092,6.79Zm0-.659c.051-.051.1,0,.2.051,0,.051,0,.1-.051.1h-.051c-.152,0-.253-.051-.253-.1A.186.186,0,0,0,76.092,6.131Zm-.659,1.115h-.152c0,.051-.051.051-.051.1v.1q0,.076-.152,0a.47.47,0,0,1,.355-.456c0,.051,0,.1-.051.1C75.332,7.144,75.382,7.2,75.433,7.246Zm.152-.253a.643.643,0,0,1-.051-.3h.152l.152.152c0,.051.051.051.1.051v.253C75.737,7.144,75.636,7.094,75.585,6.992Zm.3,15.86c-.1-.051-.152-.1-.051-.152.051,0,.1,0,.1.051s.051.051.152.051C76.041,22.9,75.99,22.9,75.889,22.852Zm.507-6.283a.9.9,0,0,1-.608.456.1.1,0,0,0,0-.152c-.051-.051-.1-.1-.152-.1.051-.1.152-.2.2-.3a.19.19,0,0,0,0-.3c.051,0,.1-.051.1-.152v-.2a.38.38,0,0,1,.253.051.3.3,0,0,0,.2-.051A.69.69,0,0,1,76.4,16.569Zm.709,6.131c-.1-.1-.2-.1-.2,0a1.108,1.108,0,0,1-.152.253q-.076-.228,0-.3a.319.319,0,0,0,0-.3.3.3,0,0,0,.2.051c.051,0,.1-.051.2-.051,0,.051,0,.1.051.1C77.156,22.5,77.156,22.6,77.105,22.7Zm25.69,2.027h0Zm7.094-23.561A9.892,9.892,0,0,0,109.99,0c-1.824.051-3.648.152-5.574.253s-3.851.2-5.827.355a3.289,3.289,0,0,1-1.165.1c-.3,0-.608-.051-.76-.051a1.125,1.125,0,0,0-.456.051.365.365,0,0,0-.2.355V8.158c0,.405-.051.659-.051.811a.678.678,0,0,1-.051.253.862.862,0,0,0-.051.355,6.945,6.945,0,0,0,.051,2.28,12.6,12.6,0,0,1,.2,2.381c1.419.1,2.838.253,4.307.355a41.057,41.057,0,0,0,4.307.1c.051,1.064.1,2.027.2,2.939a25,25,0,0,1,.152,2.787,7.852,7.852,0,0,1-2.685.152c-.912-.051-1.824-.1-2.685-.152a3.845,3.845,0,0,0-.811.051,1.113,1.113,0,0,1-.709-.051.785.785,0,0,1-.405-.1.546.546,0,0,0-.405-.1,1.674,1.674,0,0,0-.709,0,1.235,1.235,0,0,1-.608,0c-.051.608-.051,1.317-.1,2.179v2.432h5.168c.557,0,1.165,0,1.773.051v-.152h-.3v-.253l.152-.1.152-.152h.1a.279.279,0,0,1,.253.152.72.72,0,0,1,.1.3v.1h.253a4.637,4.637,0,0,1,.811.051l-.152-.051v-.152h.507a.134.134,0,0,1,.152.152c.2,0,.507.051.963.051a13.758,13.758,0,0,0,1.419-.051,9.963,9.963,0,0,0,1.317-.1,1.649,1.649,0,0,0,.659-.152,1.575,1.575,0,0,0,.253-.861,11.462,11.462,0,0,0,.051-1.368,12.81,12.81,0,0,0-.051-1.419c0-.456-.051-.76-.051-.963,0-.76.051-1.571.1-2.331a21.11,21.11,0,0,0,0-2.533c0-.152.051-.2.152-.2s.152-.051.1-.152l-.608-4.763-8.056-.355c0-.912-.051-1.773-.1-2.483a16.743,16.743,0,0,1-.051-2.28h3.952a10.7,10.7,0,0,0,1.317.1,12.347,12.347,0,0,0,1.368.051h1.267a5.958,5.958,0,0,0,1.064-.152,7.965,7.965,0,0,1-.2-1.165,9.764,9.764,0,0,1,.051-1.216A5.2,5.2,0,0,1,109.888,1.165ZM97.626,9.222c-.1,0-.152,0-.2-.051,0-.1.1-.152.253-.152C97.728,9.121,97.677,9.222,97.626,9.222Zm.3,1.621a.186.186,0,0,0,.051-.152c.051,0,.1,0,.1.051v.051c0,.051,0,.051.051.051s.051,0,.051.051c-.051.051-.1.1-.152.051a.383.383,0,0,0-.2.051C97.88,10.945,97.88,10.894,97.93,10.843Zm.2.608q-.228,0-.152-.152c.051,0,.1,0,.1-.051a.678.678,0,0,1,.253.051C98.386,11.4,98.285,11.451,98.133,11.451Zm.507-.608c-.051.051-.1.152-.152.2a.134.134,0,0,1-.152-.152.279.279,0,0,0-.1-.253.463.463,0,0,0,.253-.152c.1-.1.152-.1.2.051C98.69,10.691,98.69,10.793,98.64,10.843Zm-.152-.456v-.253a.38.38,0,0,1,.253.051c.051.051.1.051.253.051a.263.263,0,0,1-.2.1A1.791,1.791,0,0,0,98.488,10.387Zm.456.659c.2,0,.253.051.253.152C99.045,11.2,98.944,11.147,98.944,11.046Zm2.381-1.267c.051-.051.1-.1.152-.051a.186.186,0,0,0,.152.051c0,.1-.051.152-.2.152C101.325,9.931,101.274,9.881,101.325,9.779Zm-.3,2.584h.2c0,.1-.051.152-.152.2-.1,0-.152,0-.2-.051C100.869,12.414,100.92,12.414,101.021,12.363ZM101.68,2.28q0-.228.152-.152C101.781,2.229,101.781,2.28,101.68,2.28Zm32.074-.963a10.138,10.138,0,0,0-3.091-.405c-1.064,0-2.179,0-3.243-.1C126.457.76,125.494.76,124.532.76a11.858,11.858,0,0,0-1.925.152.05.05,0,0,1,.051.051.186.186,0,0,1-.051.152c-.051.051-.051.051-.051-.051H122.4v-.1c0,.051.051.051.1,0h0a3.421,3.421,0,0,1-.709.1,1.9,1.9,0,0,0,0,1.064c0,.051-.051.1-.152.1s-.152.051-.1.2c0,.608-.051,1.165-.051,1.672V5.574c0,.507-.051,1.013-.051,1.52a10.236,10.236,0,0,1-.152,1.672,2.705,2.705,0,0,1,.1,1.115,9.1,9.1,0,0,0-.1,1.115.825.825,0,0,0,.152.3.549.549,0,0,1,.051.3,2.567,2.567,0,0,1-.1.659,1.391,1.391,0,0,0-.1.659,5.507,5.507,0,0,0-.051.912c0,.3.051.608.051.912v5.219c0,1.571.1,3.192.2,4.915.709.051,1.419.051,2.027.051.659,0,1.419-.051,2.229-.051-.051-1.52-.1-3.192-.051-4.915s0-3.446-.1-5.118a25.565,25.565,0,0,1,2.787,0,17.927,17.927,0,0,0,2.837-.1,7.591,7.591,0,0,1-.1-1.115v-3.6c-.963.051-1.875.152-2.837.253a6.5,6.5,0,0,1-2.635-.253c-.051-.709-.1-1.469-.152-2.179a11.438,11.438,0,0,1,.051-2.28c.709,0,1.368,0,2.077-.051s1.419-.051,2.128-.051,1.368.051,2.027.1a9.6,9.6,0,0,1,1.824.456c-.051-.709-.051-1.469-.051-2.179A11.344,11.344,0,0,0,133.754,1.317ZM122.3,24.625c-.051.051-.1,0-.1-.051s.051-.051.1-.051.1.051.152.051C122.4,24.575,122.353,24.625,122.3,24.625Zm1.723-1.064c0,.051-.051,0-.152-.051,0,.152,0,.253-.051.3,0,.051-.1.1-.2.1,0-.1,0-.2.051-.2l.051-.051a.3.3,0,0,1-.051-.2.551.551,0,0,0-.051-.253.643.643,0,0,1,.3.051q.152,0,.152.3C124.076,23.511,124.076,23.561,124.025,23.561ZM122.657.912h0ZM147.13,10.59a1.67,1.67,0,0,1,0-.709,3.421,3.421,0,0,0,.1-.709.72.72,0,0,0-.1-.3.372.372,0,0,1-.1-.3,1.956,1.956,0,0,1,.152-1.064,1.624,1.624,0,0,0,.1-.963,1.252,1.252,0,0,0-.2-.456.575.575,0,0,1-.152-.405,3.794,3.794,0,0,1-.1-1.064,9.1,9.1,0,0,1,.1-1.115,7.591,7.591,0,0,0,.1-1.115,3.793,3.793,0,0,0-.1-1.064A2.512,2.512,0,0,0,145.61.912a6.767,6.767,0,0,0-1.419.051c-1.52.051-3.142.051-4.814.1h-4.712a5.209,5.209,0,0,0,0,1.773,17.614,17.614,0,0,1,.253,1.824,14.483,14.483,0,0,1-.152,2.939,14.592,14.592,0,0,0-.2,2.939c.051,2.28.1,4.611.152,6.891q.076,3.5.456,6.992c.76,0,1.621.051,2.584.1a11.812,11.812,0,0,0,2.685-.1.674.674,0,0,0-.152-.355.547.547,0,0,1-.152-.355.989.989,0,0,1,.051-.355.551.551,0,0,0,.051-.253,4.582,4.582,0,0,0,.051-1.419c-.051-.405-.1-.811-.152-1.165,0-.051.051-.1.152-.051a.383.383,0,0,0,.2.051.433.433,0,0,0-.152-.3l-.3-.152a3.228,3.228,0,0,0-.355-.1.506.506,0,0,1-.253-.2,26.093,26.093,0,0,0,.1-3.446c-.051-1.165-.1-2.28-.152-3.446s-.152-2.331-.2-3.547-.051-2.432,0-3.648a5.836,5.836,0,0,0,1.013-.051,4.435,4.435,0,0,1,.811-.1,3.81,3.81,0,0,1,.76,0,2.523,2.523,0,0,1,.963.2,34.572,34.572,0,0,0,.051,3.952c.051,1.368.152,2.787.2,4.256a24.649,24.649,0,0,1,0,2.736,12.649,12.649,0,0,0,.1,2.483c-.1,0-.152.1-.1.3a.742.742,0,0,1-.1.557,8.985,8.985,0,0,1-1.115-.051,4.208,4.208,0,0,0-1.368.152c0,.152.051.2.152.2s.152.1.2.3a.551.551,0,0,1-.051.253,1.125,1.125,0,0,0-.051.456,3.525,3.525,0,0,0,.1.811.622.622,0,0,1-.1.608,1.012,1.012,0,0,1,.1.456.367.367,0,0,1-.1.405c.1,0,.152.1.2.2s.051.2.1.3c0,.1.051.2.051.3s0,.152.051.152a2.87,2.87,0,0,0,1.317.051c.456-.051.861-.1,1.317-.152a7.235,7.235,0,0,1,1.469.152,8.018,8.018,0,0,0,1.621.152.387.387,0,0,1,.253.1c.051.051.152.1.355.051a5.847,5.847,0,0,0-.051-1.317,3.842,3.842,0,0,1-.051-1.317,2.155,2.155,0,0,1,.1-.557,1.091,1.091,0,0,0,.1-.557.551.551,0,0,0-.051-.253.551.551,0,0,1-.051-.253,4.934,4.934,0,0,1-.1-1.216c0-.355.051-.811.1-1.317.051-.76.1-1.52.1-2.179V13.985a9.368,9.368,0,0,1,.051-1.165,8.585,8.585,0,0,0,.051-1.115,4.226,4.226,0,0,0-.2-.608A.473.473,0,0,1,147.13,10.59ZM136.642,5.118a.279.279,0,0,1,.152.253.643.643,0,0,1-.3-.051c-.1,0-.152-.1-.152-.2A.323.323,0,0,1,136.642,5.118Zm-.355,1.571a.239.239,0,0,1,.253.253h-.253Zm-.3,10.438q-.152.076-.152,0c0-.1.1-.152.253-.152C136.135,17.076,136.084,17.126,135.983,17.126Zm.456-4.408c-.051,0-.1.051-.152.1-.051-.051-.051-.1,0-.2s.152-.1.253-.051C136.54,12.667,136.49,12.718,136.439,12.718Zm.2-5.27c-.152,0-.2-.051-.1-.1a.186.186,0,0,0,.152-.051c.051,0,.051,0,.051.051C136.844,7.448,136.794,7.448,136.642,7.448Zm.709-5.067a.217.217,0,0,1-.051.355.606.606,0,0,1-.405.2Zm-.2,1.925a.226.226,0,0,1,.253,0c.051.1.051.152,0,.2-.1,0-.2-.051-.2-.1C137.149,4.408,137.149,4.358,137.149,4.307Zm.456,7.4a.23.23,0,0,1-.253,0,.125.125,0,0,0-.051-.2c-.1-.051-.1-.152-.051-.253a.279.279,0,0,1,.253.152.234.234,0,0,0,.253.152Q137.757,11.629,137.6,11.7Zm6.03,9.931c-.051.051-.051.1-.051.253-.1-.051-.2-.051-.3-.1h-.3a.186.186,0,0,1,.051-.152.383.383,0,0,0-.051-.2.542.542,0,0,0,.405,0,.323.323,0,0,1,.3,0C143.685,21.535,143.634,21.585,143.634,21.636Zm.557-1.52a.186.186,0,0,1-.152-.051c0-.051-.051-.051-.152-.051a.239.239,0,0,1,.253-.253.3.3,0,0,0,.051.2C144.242,19.964,144.192,20.015,144.192,20.116ZM145,22.6c-.1,0-.1-.051-.1-.152h.253C145.1,22.6,145.053,22.6,145,22.6ZM162.483,7.7a5.125,5.125,0,0,1-.2-1.165,7.6,7.6,0,0,1,0-1.52,7.6,7.6,0,0,0,0-1.52,5.027,5.027,0,0,0-.3-1.317,2.3,2.3,0,0,1-.051-1.317h-2.99c-1.064,0-2.179.051-3.294.051s-2.229.051-3.395.051h-3.294c-.051,1.469-.1,2.939-.1,4.408v3.8c-.051.1-.051.152.051.152.051,0,.1,0,.1.1a.463.463,0,0,0-.152.253v.253a11.023,11.023,0,0,0-.051,1.317c0,.456.051.912.051,1.419,0,.861,0,1.621.051,2.381s.051,1.571.051,2.533a4.175,4.175,0,0,1-.2,1.317,2.74,2.74,0,0,0-.051,1.267,5.278,5.278,0,0,0,.253.608,1.163,1.163,0,0,1,.2.709v.861a6.135,6.135,0,0,0-.051.963,3.847,3.847,0,0,0,.051.811.9.9,0,0,0,.405.557,1.4,1.4,0,0,0,.659.051,3.835,3.835,0,0,1,.76-.051h.709v-.152c0-.051.051-.051.152-.051h.355v.253h1.317a29.623,29.623,0,0,0,.355-3.648c.051-1.216.051-2.483,0-3.851-.051-1.115-.1-2.229-.2-3.243s-.152-2.179-.152-3.395h1.064a31.551,31.551,0,0,1,.76,3.142c.2,1.064.355,2.128.557,3.142,0,.1.051.2.1.2.1.051.1.1.1.152-.051.051-.051.1-.051.2s.051.2.051.405a10.824,10.824,0,0,0,.456,1.723q.3.836.608,1.824l1.064,3.446h4.307c-.2-1.216-.405-2.381-.659-3.6s-.557-2.432-.811-3.648-.557-2.432-.811-3.648-.507-2.432-.659-3.6a1.441,1.441,0,0,0,.659,0,1.442,1.442,0,0,1,.659,0,2.155,2.155,0,0,1,.557.1,1.053,1.053,0,0,0,.557.051c.355-.1.608-.253.659-.557a1.953,1.953,0,0,0,.1-.963A6.523,6.523,0,0,0,162.483,7.7ZM150.323,4.408c-.051,0-.1-.051-.152-.051V4.307a.186.186,0,0,0,.152-.051c.051-.051.1,0,.1.051C150.424,4.408,150.373,4.459,150.323,4.408Zm.253-1.064a.542.542,0,0,1-.405,0c-.051-.1-.1-.152-.051-.152s.1.051.152.051c.1-.2.2-.253.3-.253s.1.051.1.152C150.677,3.192,150.627,3.243,150.576,3.344Zm7.3,2.027a5.052,5.052,0,0,1-.1.811,29.822,29.822,0,0,1-4.256,0,3.837,3.837,0,0,0-.051-.76,4.1,4.1,0,0,1-.051-.76,3.117,3.117,0,0,1,.659-.051,1.749,1.749,0,0,0,.659-.152V4.307c0-.051-.051-.1-.1-.051s-.051,0,0-.1a.134.134,0,0,1,.152.152.279.279,0,0,0,.1.253c.557,0,1.064,0,1.571-.051a7.632,7.632,0,0,1,1.52.051C157.923,4.864,157.923,5.118,157.872,5.371ZM186.7,19.356a.751.751,0,0,0-.811.152c-1.419.1-2.736.152-3.851.253a12.643,12.643,0,0,1-3.395-.253,14.728,14.728,0,0,0,.3-3.04,16.158,16.158,0,0,1,.405-3.142,1.211,1.211,0,0,1-.253-.709,4.359,4.359,0,0,1,.051-.811c.051-.253.1-.557.152-.861s.1-.608.152-.861a22.326,22.326,0,0,0-.152-2.635c-.1-.861-.152-1.621-.253-2.229a1.07,1.07,0,0,0,.3-.811,4.1,4.1,0,0,0,0-1.115c-.051-.405-.051-.811-.1-1.216a4.4,4.4,0,0,1,.051-1.165.387.387,0,0,1,.1-.253c.051-.051.051-.1-.1-.1l-4.915.253a2.386,2.386,0,0,0-.253,1.216,9.867,9.867,0,0,1-.1,1.267c-.051.861-.051,1.672-.051,2.483s.051,1.672.051,2.483c0,2.381.051,4.611.1,6.688s.051,4.1-.1,6.131a.154.154,0,0,0,.2,0,.1.1,0,0,1,.152,0,.7.7,0,0,1-.2.152c-.1,0-.152.051-.152.1a4.05,4.05,0,0,1,.659.659,3.6,3.6,0,0,1,.507.709,3.6,3.6,0,0,0,.507.709,3.489,3.489,0,0,0,.557.659A22.221,22.221,0,0,1,179,23.916h3.04c1.013,0,2.027.051,2.99.051h2.685V19.356A2.28,2.28,0,0,1,186.7,19.356Zm-11.2-17.734h0c.1-.1.1-.152.152-.1v.152A.186.186,0,0,1,175.505,1.621Zm2.179,4.56a.234.234,0,0,1,.253-.152c0,.2-.051.3-.152.355a.429.429,0,0,1-.355,0A.232.232,0,0,0,177.684,6.182Zm-.456,2.331c.051,0,.051-.051,0-.2a.335.335,0,0,0,.3.051.643.643,0,0,1,.3.051v.2a.387.387,0,0,1-.1.253q-.3,0-.3-.152c-.051-.1-.152-.152-.3-.051C177.127,8.614,177.127,8.512,177.228,8.512Zm-.253,4.459v-.253h.253A.239.239,0,0,1,176.975,12.971Zm.608.608c0-.1.1-.152.253-.152A.234.234,0,0,1,177.583,13.579Zm.608-2.635a.292.292,0,0,0-.405-.152,1.081,1.081,0,0,1-.608.152.637.637,0,0,1,.355-.3.383.383,0,0,0,.355-.2l-.355-.355c0-.051,0-.1.051-.1h.051c.1.1.253.2.405.355Q178.343,10.489,178.191,10.945Zm0-.963-.051-.051-.051-.051a.157.157,0,0,0-.051-.1.3.3,0,0,1,.2.051C178.292,9.881,178.292,9.931,178.191,9.982Zm.253-.557a2.2,2.2,0,0,0-.253-.051c.051-.2.152-.253.253-.2a1.27,1.27,0,0,1,.355.2l-.152.152c-.051.051-.1.051-.2.051A.1.1,0,0,0,178.444,9.425Zm0,5.675a.279.279,0,0,1,.1-.253c.051,0,.051.051.051.152a.457.457,0,0,0,.051.253C178.546,15.252,178.444,15.2,178.444,15.1Zm16.67-14.035a19.148,19.148,0,0,1-3.446.1c-1.216-.051-2.28-.051-3.243,0l-.253,4.408a4.064,4.064,0,0,0,1.115,0,3.28,3.28,0,0,1,1.013,0,10.7,10.7,0,0,1-.1,1.317,1.836,1.836,0,0,0,.1,1.064.591.591,0,0,0-.1.355v.507a.109.109,0,0,0,.1.1c.1,0,.1.051.1.152-.152,0-.253.051-.253.152v3.294c0,1.064-.051,2.077-.1,3.091,0,.051,0,.1.051.1a.186.186,0,0,1,.152.051c.051,0,.1.051.152.051s.051.1.051.152c-.051.051-.152.051-.253-.051s-.152-.1-.2.051c0,.76-.051,1.52-.1,2.128q-.076.988-.152,2.128a1.919,1.919,0,0,1-.76,0,1.914,1.914,0,0,0-.76,0,13.8,13.8,0,0,0-.2,2.128c0,.811-.051,1.571-.051,2.331,1.469.051,2.99,0,4.51-.051a37.544,37.544,0,0,1,4.763.051l-.253-3.648c0,.051,0,.1-.051.1h-.051v.152h-.152a.186.186,0,0,0-.051-.152c-.051-.051-.051-.1-.051-.2v-.152h.355v-.709a11.9,11.9,0,0,0-1.317.051,6.767,6.767,0,0,1-1.419-.051c0-2.533.051-5.016.1-7.448s.1-4.763.152-7.043h2.888V.811a8.407,8.407,0,0,0-1.216.1C195.925.963,195.52,1.013,195.115,1.064Zm-3.8,3.04a.186.186,0,0,1-.152-.051c0-.051.051-.1.1-.051.1,0,.1,0,.1-.051C191.416,4.054,191.365,4.1,191.314,4.1Zm4,19a.279.279,0,0,1,.253-.152c0,.1-.051.2-.1.2-.051.051-.1.051-.152.1Q195.241,23.257,195.317,23.105ZM192.48,2.128c.051.152.051.2-.051.2s-.152-.051-.152-.2Zm.3,11.4c0,.1-.1.1-.2.051a.186.186,0,0,1,.051-.152c0-.051.1-.051.2-.051A.392.392,0,0,1,192.784,13.529Zm-.1-6.334a.109.109,0,0,1-.1.1.61.61,0,0,0-.253-.253q-.152-.076-.152-.456l.355.253a.186.186,0,0,0,.051.152c0,.051.1.1.2.1Zm1.013.912c-.152,0-.253-.051-.253-.152.051,0,.1,0,.1-.051s.051-.051.152-.051Zm-.1-.456a.1.1,0,0,1-.152,0,.186.186,0,0,1,.051-.152c0-.051.1-.051.2.051ZM194,4.459a.279.279,0,0,1-.253-.1q0-.076.152-.152c.1-.051.152-.051.2.051C194.152,4.408,194.1,4.459,194,4.459Zm.507,18.393c0,.1-.1.152-.253.152a.186.186,0,0,1,.051-.152c.051,0,.051-.051.051-.152Zm.557-20.268c-.1,0-.1,0-.1.051V2.483h.253C195.216,2.584,195.165,2.584,195.064,2.584ZM199.776.912h0Zm11.1.405a10.138,10.138,0,0,0-3.091-.405c-1.064,0-2.179,0-3.243-.1C203.576.76,202.614.76,201.651.76a11.858,11.858,0,0,0-1.925.152.05.05,0,0,1,.051.051.186.186,0,0,1-.051.152c-.051.051-.051.051-.051-.051h-.152v-.1c0,.051.051.051.1,0h0a3.421,3.421,0,0,1-.709.1,1.9,1.9,0,0,0,0,1.064c0,.051-.051.1-.152.1s-.152.051-.1.2c0,.608-.051,1.165-.051,1.672V5.574c0,.507-.051,1.013-.051,1.52a10.238,10.238,0,0,1-.152,1.672,2.706,2.706,0,0,1,.1,1.115,9.1,9.1,0,0,0-.1,1.115.825.825,0,0,0,.152.3.549.549,0,0,1,.051.3,2.566,2.566,0,0,1-.1.659,1.391,1.391,0,0,0-.1.659,5.5,5.5,0,0,0-.051.912c0,.3.051.608.051.912v5.219c0,1.571.1,3.192.2,4.915.709.051,1.419.051,2.027.051.659,0,1.419-.051,2.229-.051-.051-1.52-.1-3.192-.051-4.915s0-3.446-.1-5.118a25.565,25.565,0,0,1,2.787,0,17.927,17.927,0,0,0,2.837-.1,7.587,7.587,0,0,1-.1-1.115v-3.6c-.963.051-1.875.152-2.838.253a6.5,6.5,0,0,1-2.635-.253c-.051-.709-.1-1.469-.152-2.179a11.435,11.435,0,0,1,.051-2.28c.709,0,1.368,0,2.077-.051s1.419-.051,2.128-.051,1.368.051,2.027.1a9.6,9.6,0,0,1,1.824.456c-.051-.709-.051-1.469-.051-2.179A11.346,11.346,0,0,0,210.873,1.317ZM199.421,24.625c-.051.051-.1,0-.1-.051s.051-.051.1-.051.1.051.152.051C199.523,24.575,199.472,24.625,199.421,24.625Zm1.723-1.064c0,.051-.051,0-.152-.051,0,.152,0,.253-.051.3,0,.051-.1.1-.2.1,0-.1,0-.2.051-.2l.051-.051a.3.3,0,0,1-.051-.2.551.551,0,0,0-.051-.253.643.643,0,0,1,.3.051q.152,0,.152.3C201.195,23.511,201.144,23.561,201.144,23.561Zm22.649.1a7.053,7.053,0,0,1,.051-1.773,6.673,6.673,0,0,0,.1-1.672c-1.064.051-2.28.051-3.6.051s-2.685-.051-4.1-.051a16.347,16.347,0,0,1,.051-2.736,9.9,9.9,0,0,0-.051-2.736c1.013,0,1.925,0,2.685-.051.811-.051,1.672-.1,2.635-.152a11.584,11.584,0,0,1-.1-1.267,8.971,8.971,0,0,1,.051-1.165A8.211,8.211,0,0,1,221.564,11a5.356,5.356,0,0,0-.1-1.216c-.507.051-1.013.051-1.621.1a3.1,3.1,0,0,0-1.52.405c.051-.1,0-.152-.1-.2a.38.38,0,0,0-.253.051h.253c.051,0,.051.051,0,.1a1.4,1.4,0,0,0-1.013-.152,1.553,1.553,0,0,1-.963,0q-.076-.988-.152-2.28a10.08,10.08,0,0,1,.152-2.483c.608,0,1.267,0,1.925-.051l1.976-.152a12.063,12.063,0,0,1,1.925.051,4.008,4.008,0,0,1,1.723.507c0-.659,0-1.368.051-2.179s.051-1.571.051-2.28c-.709-.152-1.419-.253-2.179-.355-.76-.051-1.571-.1-2.381-.1H216.9c-.811,0-1.571.051-2.331.051a10.667,10.667,0,0,1-1.267.1h-1.267a4.2,4.2,0,0,0-.3,1.723,14.209,14.209,0,0,0,0,2.077c0,.709.051,1.419.051,2.128a10.993,10.993,0,0,1-.152,1.925,2.811,2.811,0,0,1,.152.861,3.836,3.836,0,0,1-.051.76,3.31,3.31,0,0,0,0,.709,2.033,2.033,0,0,0,.152.76c-.051.2-.1.355-.152.608a2.99,2.99,0,0,0-.1.709,19.455,19.455,0,0,0,0,2.432,21.125,21.125,0,0,1,0,2.533c-.051,1.013-.051,2.077,0,3.142s.152,2.229.253,3.395c.861,0,1.672,0,2.533.051.861,0,1.773,0,2.837-.051h.3a.744.744,0,0,0,.659.051c.253-.051.507-.152.76-.2,0,.1.051.152.2.1s.253-.051.3.051a.619.619,0,0,0,.456-.152v-.1h.253c.1,0,.152.051.152.1a7.671,7.671,0,0,0,1.621.152h1.824a.455.455,0,0,0,.1-.456C223.794,24.119,223.794,23.916,223.794,23.663Zm-4.1-20.116a.186.186,0,0,0-.152.051c-.051,0-.051,0-.051-.152C219.639,3.446,219.689,3.5,219.689,3.547Zm-.709-1.064c.1,0,.2,0,.2.051a.186.186,0,0,0,.152.051c0,.051-.051.051-.152.1h-.253v-.2Zm0,.557c.051-.1.152-.1.253-.051,0,.152,0,.253-.051.3s-.1.152-.152.2c-.1,0-.152-.051-.152-.1,0-.1,0-.1-.1-.1A.506.506,0,0,1,218.98,3.04Zm-.507.253c.051-.051.051-.1.051-.2a.157.157,0,0,1,.1.051.05.05,0,0,0,.051.051c0,.051,0,.1.051.1h.051c-.051.051-.1.1-.1.051a.678.678,0,0,0-.253.051A.157.157,0,0,1,218.473,3.294Zm.3.405c.051.2,0,.253-.152.2s-.253-.1-.253-.2Zm-.76-2.229c.051,0,.1-.051.152-.051a.226.226,0,0,1,0,.253c-.1.051-.152.051-.2,0C217.916,1.571,217.967,1.469,218.017,1.469ZM216.852,4c0-.051.051-.051.152-.051,0,.1,0,.152.051.152a.186.186,0,0,1,.152.051c-.1.1-.152.152-.253.152,0-.152-.051-.253-.152-.253A.05.05,0,0,0,216.852,4Zm-3.446,12.515c.1,0,.152.1.152.253H213.3A.856.856,0,0,1,213.406,16.518Zm.3.811c-.1,0-.2-.051-.2-.1a.3.3,0,0,0,.2-.051.383.383,0,0,1,.2.051C213.913,17.278,213.862,17.329,213.71,17.329Zm.405-4.763c.1-.1.253-.152.355-.3.051.051.1.152.051.2s-.1.152-.152.2c-.1.051-.152.1-.253.152a.457.457,0,0,1-.253.051C213.964,12.718,214.014,12.617,214.116,12.566Zm0,1.621a.226.226,0,0,1,.253,0c.051.1.051.152,0,.2C214.217,14.39,214.116,14.34,214.116,14.187Zm.507,7.347a.23.23,0,0,1-.253,0,.125.125,0,0,0,.051-.2c-.1-.051-.1-.152-.051-.253q.076,0,.152.152c.051.1.1.152.2.1A.263.263,0,0,1,214.622,21.535Z" transform="translate(-0.074)"/>
</svg>
